<svg width="90" height="86" viewBox="0 0 90 86" fill="none" xmlns="http://www.w3.org/2000/svg">
<path d="M39.9139 81.3941H17.5844L15.5996 64.8952L1.95382 55.095C1.33356 52.2418 1.08546 49.2646 1.08546 46.2873C1.08546 21.973 20.8098 2.37277 45 2.37277C69.3143 2.37277 88.9145 22.0971 88.9145 46.2873C88.9145 49.2646 88.6664 52.2418 88.0462 55.095L74.5245 64.8952L72.4156 81.3941H50.0861L48.8456 82.3866C47.7292 83.2549 46.3646 83.6271 45 83.6271C43.6354 83.6271 42.2708 83.1309 41.1544 82.3866L39.9139 81.3941V81.3941Z" stroke="white" stroke-width="3.08753" stroke-miterlimit="40"/>
<path d="M39.9139 81.3941H17.5844L15.5996 64.8952L1.95382 55.095C1.33356 52.2418 1.08546 49.2646 1.08546 46.2873C1.08546 21.973 20.8098 2.37277 45 2.37277C69.3143 2.37277 88.9145 22.0971 88.9145 46.2873C88.9145 49.2646 88.6664 52.2418 88.0462 55.095L74.5245 64.8952L72.4156 81.3941H50.0861L48.8456 82.3866C47.7292 83.2549 46.3646 83.6271 45 83.6271C43.6354 83.6271 42.2708 83.1309 41.1544 82.3866L39.9139 81.3941Z" fill="#FBCE07"/>
<path fill-rule="evenodd" clip-rule="evenodd" d="M39.9139 81.3941H17.5844L15.5996 64.8952L1.95382 55.095C1.33356 52.2418 1.08546 49.2646 1.08546 46.2873C1.08546 21.973 20.8098 2.37277 45 2.37277C69.1902 2.37277 88.9145 22.0971 88.9145 46.2873C88.9145 49.2646 88.6664 52.2418 88.0462 55.095L74.5245 64.8952L72.4156 81.3941H50.0861L48.8456 82.3866C47.7292 83.2549 46.3646 83.6271 45 83.6271C43.6354 83.6271 42.2708 83.1309 41.1544 82.3866L39.9139 81.3941ZM40.6582 73.7029H24.4073L22.7946 60.5533L9.39697 50.8773C9.02481 49.3886 8.77671 47.7759 8.77671 46.1633C8.77671 43.5582 9.27291 40.9531 10.3894 38.5961L34.0834 62.5382L11.1337 34.1302C12.0021 30.4086 13.9869 27.1832 16.8401 24.5781L37.4328 60.1812L19.1971 21.3528C21.5541 18.2515 24.9035 15.8945 28.6251 14.778L41.2784 58.9407L32.0986 12.9172C34.9518 11.3045 38.0531 10.5602 41.2784 10.5602C41.8987 10.5602 42.643 10.5602 43.2633 10.6843L45.1241 58.4445L46.9848 10.6843C47.6051 10.5602 48.3494 10.5602 48.9697 10.5602C52.195 10.5602 55.2964 11.4286 58.1496 12.9172L48.9697 58.9407L61.623 14.654C65.3446 15.7704 68.694 18.1274 71.051 21.2287L52.6912 60.1812L73.2839 24.5781C76.1371 27.0592 78.122 30.4086 78.9903 34.1302L56.0407 62.5382L79.7347 38.5961C80.8511 40.9531 81.3473 43.5582 81.3473 46.1633C81.3473 47.7759 81.0992 49.2646 80.7271 50.8773L67.3294 60.5533L65.7168 73.7029H49.5899L47.1089 75.4396C46.4886 75.9358 45.7443 76.0599 45 76.0599C44.2557 76.0599 43.5114 75.8118 42.8911 75.4396L40.6582 73.7029Z" fill="#DD1D21"/>
</svg>
